# xmcd
#
# Track frame offsets: 
#        150
#        15528
#        31814
#        45452
#        58091
#        69761
#        86541
#        107536
#        121916
#
# Disc length: 1877 seconds
#
# Revision: 0
# Processed by: cddbd v1.5.1PL0 Copyright (c) Steve Scherf et al.
# Submitted via: ExactAudioCopy v0.95a5
#
DISCID=62075309
DTITLE=Rosa León - Y si partimos todo a la mitad
DYEAR=1986
DGENRE=Ballad
TTITLE0=Lamento al mar
TTITLE1=Y si partimos todo a la mitad
TTITLE2=Vals del diccionario
TTITLE3=Niña suspendida
TTITLE4=Con todo te amé
TTITLE5=Es hora ya
TTITLE6=Nana de la adúltera
TTITLE7=Arroyo libre
TTITLE8=Intento amor
EXTD=
EXTT0=
EXTT1=
EXTT2=
EXTT3=
EXTT4=
EXTT5=
EXTT6=
EXTT7=
EXTT8=
PLAYORDER=
